<svg width="258" height="82" viewBox="0 0 258 82" xmlns="http://www.w3.org/2000/svg" xmlns:xlink="http://www.w3.org/1999/xlink">
    <defs>
        <path id="30bi5sc7ab" d="M0 0h25v43H0z"/>
        <path id="fdka1sc7ed" d="M0 0h71v74H0z"/>
        <filter x="-.9%" y="-.5%" width="101.8%" height="101.4%" filterUnits="objectBoundingBox" id="zx2ixxn5wa">
            <feOffset dy="2" in="SourceAlpha" result="shadowOffsetOuter1"/>
            <feGaussianBlur stdDeviation="2" in="shadowOffsetOuter1" result="shadowBlurOuter1"/>
            <feColorMatrix values="0 0 0 0 0 0 0 0 0 0 0 0 0 0 0 0 0 0 0.5 0" in="shadowBlurOuter1" result="shadowMatrixOuter1"/>
            <feMerge>
                <feMergeNode in="shadowMatrixOuter1"/>
                <feMergeNode in="SourceGraphic"/>
            </feMerge>
        </filter>
    </defs>
    <g filter="url(#zx2ixxn5wa)" transform="translate(-214 -359)" fill="none" fill-rule="evenodd">
        <g transform="translate(218 392)">
            <mask id="1oo69f9c0c" fill="#fff">
                <use xlink:href="#30bi5sc7ab"/>
            </mask>
            <path d="M11.238 24.767c-1.776 0-3.163.478-4.16 1.435-.996.957-1.494 2.273-1.494 3.948.031.973.232 1.855.603 2.644.37.79.876 1.456 1.517 1.998.64.543 1.394.961 2.26 1.256.864.296 1.799.444 2.803.444H25V43H.255v-6.508h4.472c-1.622-.91-2.812-2.118-3.568-3.626-.757-1.507-1.143-3.282-1.16-5.324 0-2.233.511-4.1 1.53-5.6 1.02-1.499 2.45-2.552 4.287-3.158-2.008-.846-3.476-2.074-4.402-3.685C.487 13.488.016 11.558 0 9.309 0 7.874.22 6.58.66 5.432c.44-1.148 1.075-2.125 1.9-2.93.827-.807 1.828-1.425 3.001-1.855C6.735.216 8.056 0 9.523 0H25v6.557H11.238c-1.776 0-3.163.482-4.16 1.447-.996.966-1.494 2.286-1.494 3.96.031.974.232 1.848.603 2.622.37.772.876 1.427 1.517 1.961a6.856 6.856 0 0 0 2.26 1.232c.864.287 1.799.431 2.803.431H25v6.557H11.238z" fill="#FFF" mask="url(#1oo69f9c0c)"/>
        </g>
        <path d="M248.32 372.862c2.252.895 3.928 2.118 5.029 3.667 1.1 1.55 1.651 3.42 1.651 5.607 0 1.31-.194 2.504-.58 3.582-.387 1.077-1 2.138-1.84 3.182l-4.915-2.884c.47-.613.815-1.19 1.034-1.728a4.56 4.56 0 0 0 .327-1.729c0-1.69-.916-2.95-2.747-3.78l-1.815-.795L218 389v-7.038l19.66-7.384-19.66-6.79V361l30.32 11.862z" fill="#FFF"/>
        <g transform="translate(397 361)">
            <mask id="0utf4e20qe" fill="#fff">
                <use xlink:href="#fdka1sc7ed"/>
            </mask>
            <path d="M44.077 29.33C37.717 31.307 33.1 37.24 33.1 44.25v2.877H51.468v6.1c-3.435 1.537-6.951 2.52-9.784 2.742-.405.031-.796.048-1.171.048-10.54 0-18.5-8.062-18.5-19.12 0-10.852 7.856-19.017 18.293-19.017 3.033 0 6.28.718 9.387 1.992 6.249 2.562 13.445.613 17.744-4.596L71 10.956C63.352 4.237 51.467 0 40.408 0 18.61 0 2.308 13.686.23 32.736c0 .009-.002.018-.003.026a37.866 37.866 0 0 0-.15 1.81c-.006.09-.015.177-.02.267C.02 35.519 0 36.204 0 36.896c0 14.637 7.817 26.686 19.988 32.787.554.277 1.116.542 1.687.795a40.321 40.321 0 0 0 7.247 2.403A44.632 44.632 0 0 0 38.962 74c4.521 0 9.518-.752 14.366-2.048.226-.06.45-.13.676-.192l.099-.028c.43-.12.864-.239 1.291-.368.355-.107.704-.224 1.057-.337l.231-.074a66.057 66.057 0 0 0 2.35-.808l.047-.017a59.963 59.963 0 0 0 4.55-1.886c.168-.077.33-.157.495-.235a52.672 52.672 0 0 0 2.158-1.092c.472-.254.93-.513 1.38-.776.182-.106.367-.21.546-.318a37.31 37.31 0 0 0 1.758-1.123V28.627H48.723c-1.618 0-3.178.246-4.646.702" fill="#ED1C24" mask="url(#0utf4e20qe)"/>
        </g>
        <path d="M366.333 390.92v10.517l13.646 7.232v4.897l-13.556-1.87v.168c0 9.799 6.252 17.644 14.879 21.818 1.78.86 3.733 1.269 5.704 1.277l15.994.013-24.562-60.471c-2.238-5.51-7.12-9.613-12.945-10.367-7.225-.937-14.037 3.125-16.828 9.765L323 434.972l15.777.028c1.693.014 3.392-.24 4.96-.889 9.12-3.773 15.84-12.088 15.84-22.247v-.168l-13.556 1.87v-4.897l13.646-7.232v-10.542c0-1.635.63-3.204 1.758-4.372l.696-.721a1.194 1.194 0 0 1 1.718-.006l.706.722a6.297 6.297 0 0 1 1.788 4.403" fill="#71BF44"/>
        <path d="M282.19 419.3v-13.065h12.897c3.605 0 6.3 1.079 7.706 2.929.67 1 1.066 2.193 1.091 3.476-.07 4.079-3.43 6.66-8.797 6.66H282.19zm12.897-39.5c4.196 0 6.857 2.227 6.857 5.875 0 3.746-2.66 6.177-6.857 6.177H282.19V379.8h12.897zM282.19 435H304.197a21.848 21.848 0 0 0 15.602-6.511c3.984-3.363 6.201-7.905 6.201-13.342 0-.23-.02-.452-.026-.679.016-.345.026-.692.026-1.042 0-7.6-3.976-14.279-9.98-18.122 4.836-2.878 7.728-7.751 7.728-13.379C323.748 370.988 313 364 296.212 364H261v71h21.19z" fill="#BED62F"/>
    </g>
</svg>
