<svg width="84" height="13" viewBox="0 0 84 13" xmlns="http://www.w3.org/2000/svg">
    <g fill="#FFF" fill-rule="evenodd">
        <path d="M30.643 1.05c.75 0 1.377.24 1.871.726s.748 1.091.748 1.828c0 .71-.253 1.304-.757 1.775-.504.47-1.135.703-1.902.703-.74 0-1.358-.238-1.858-.715-.5-.478-.745-1.076-.745-1.789 0-.723.253-1.324.752-1.807.498-.484 1.135-.72 1.891-.72zm-.054.88c-.47 0-.853.154-1.154.46-.301.305-.448.703-.448 1.179 0 .476.152.855.462 1.155.31.3.699.446 1.18.446s.873-.152 1.18-.455c.307-.304.458-.689.458-1.16 0-.47-.159-.855-.476-1.166-.317-.31-.72-.46-1.2-.46h-.002zM37.49 6v-.632c-.201.22-.443.4-.712.529-.248.12-.519.185-.794.187a1.657 1.657 0 0 1-.861-.233 1.535 1.535 0 0 1-.6-.634c-.133-.27-.199-.706-.199-1.329V1.06h.974v2.814c0 .517.075.88.222 1.087.148.207.41.31.781.31.464 0 .86-.23 1.19-.686V1.06h.978V6h-.98zM39.143 1.84l1.838-1.8v1.02h1.561v.879h-1.559v2.417c0 .566.232.847.703.847.347 0 .718-.117 1.112-.35v.915c-.376.21-.8.318-1.231.315-.447 0-.818-.128-1.116-.391a.974.974 0 0 1-.227-.266 1.33 1.33 0 0 1-.156-.386c-.045-.162-.062-.464-.062-.911v-2.19h-.863v-.1zM36.446 8.073c.736 0 1.351.236 1.838.704.487.467.735 1.054.735 1.757 0 .702-.246 1.284-.738 1.744-.492.46-1.123.693-1.871.693-.719 0-1.32-.233-1.797-.693-.477-.46-.716-1.038-.716-1.731 0-.713.24-1.299.721-1.77.482-.47 1.093-.704 1.828-.704zm.028.65c-.545 0-.996.171-1.346.512-.35.341-.529.777-.529 1.307 0 .517.18.945.53 1.285.349.339.796.512 1.323.512.527 0 .978-.176 1.335-.521.357-.345.53-.782.53-1.3a1.695 1.695 0 0 0-.533-1.273 1.813 1.813 0 0 0-1.31-.52v-.003zM39.869 8.146h2.541v.607h-1.86v1.334h1.863v.605H40.55v2.224h-.682zM45.574 0h1.676v12.85h-1.676zM50.53.833a.965.965 0 0 1 .706.286c.192.18.3.433.297.697a.974.974 0 0 1-.297.7.963.963 0 0 1-.706.292.929.929 0 0 1-.682-.297.96.96 0 0 1 0-1.381.943.943 0 0 1 .682-.297zm-.831 3.554h1.68v8.463h-1.68V4.387zM60.722 6.708v6.142h-1.684V8.144c0-.938-.127-1.593-.371-1.967-.26-.367-.693-.554-1.32-.554-.334-.001-.663.08-.959.239-.29.162-.626.44-.995.847v6.141h-1.677V4.386h1.677v1.116c.847-.852 1.68-1.278 2.498-1.278 1.068 0 1.897.51 2.487 1.527.89-1.032 1.825-1.547 2.804-1.546.825 0 1.496.305 2.03.901.534.597.789 1.515.789 2.752v4.992h-1.67V7.836c0-.7-.146-1.244-.433-1.619-.288-.375-.7-.559-1.239-.559-.692 0-1.337.347-1.937 1.05zM69.17.833a.978.978 0 0 1 .708.286c.19.181.297.434.294.697a.984.984 0 0 1-.294.7.973.973 0 0 1-.709.292.933.933 0 0 1-.682-.297.982.982 0 0 1-.296-.696.967.967 0 0 1 .296-.686.948.948 0 0 1 .682-.296zm-.834 3.554h1.676v8.463h-1.676V4.387zM71.24 5.735l3.144-3.095v1.746h2.674v1.51h-2.674v4.143c0 .968.4 1.448 1.208 1.448.6 0 1.232-.196 1.9-.598v1.568a4.211 4.211 0 0 1-2.103.541c-.767 0-1.403-.226-1.912-.677a1.708 1.708 0 0 1-.396-.452 2.444 2.444 0 0 1-.258-.664c-.073-.271-.108-.794-.108-1.558v-3.75h-1.473l-.002-.162zM78.283 12.24v-1.799c.453.32.938.59 1.449.805.49.207.908.304 1.247.304.339 0 .644-.082.894-.258.251-.176.379-.371.379-.61a.817.817 0 0 0-.243-.61c-.162-.165-.516-.4-1.056-.704-1.074-.602-1.781-1.114-2.117-1.538-.336-.424-.5-.89-.5-1.399-.014-.62.267-1.21.757-1.589.508-.409 1.16-.614 1.954-.615.823 0 1.676.231 2.542.7v1.651c-.991-.6-1.802-.9-2.434-.9-.324 0-.589.068-.783.205-.193.136-.303.324-.303.546 0 .2.094.387.275.565.181.178.49.393.95.645l.594.339C83.3 8.774 84 9.658 84 10.624c0 .69-.266 1.262-.811 1.705-.545.442-1.244.67-2.093.67a5.047 5.047 0 0 1-1.338-.162c-.387-.106-.88-.308-1.475-.596zM13.992 1.037c-1.482.209-2.922 1.193-3.976 2.717l-.31.45-.45-.568c-.48-.607-1.423-1.518-1.886-1.82a6.49 6.49 0 0 0-1.368-.65c-.486-.157-1.692-.141-2.382.032a4.598 4.598 0 0 0-2.535 1.657C.387 3.762 0 5.092 0 6.582c0 2.986 1.428 4.92 3.939 5.336 1.727.286 3.078-.17 4.468-1.507.271-.261.667-.708.885-1 .219-.293.411-.53.43-.53.02 0 .214.231.434.518.765.995 1.875 1.92 2.733 2.28 1.088.454 2.541.387 3.815-.176.436-.193.476-.201.533-.102.113.196.399.408.64.476.174.048.994.07 2.727.07h2.48l.194-.156a.941.941 0 0 0 .384-.795c0-.349-.156-.622-.448-.786-.196-.11-.348-.122-1.946-.15l-1.734-.031-.017-.177c-.017-.168.159-.316 3.23-2.716C24.535 5.74 25.999 4.567 26 4.53c.005-.106-.593-.579-.947-.75-.607-.292-1.219-.308-1.757-.045-.13.063-.649.43-1.156.817l-.92.703-.778-.134c-1.126-.195-1.04-.159-1.084-.456-.055-.376-.315-1.051-.575-1.496-.475-.81-1.308-1.539-2.097-1.834-.719-.27-1.94-.405-2.694-.298zm1.332 2.602c.136.032.347.107.466.165.265.129.722.546.631.575-.036.012-.386-.034-.781-.102l-.717-.124-.996.765 3.16 2.631v1.024l-.236.202c-.702.605-2.205.891-3.048.582-.597-.218-1.592-1.144-2.258-2.1-.513-.737-.513-.737-.28-1.125.535-.888 1.622-2.006 2.279-2.345.519-.268 1.085-.315 1.78-.148zm-9.463.222c.68.32 1.688 1.344 2.306 2.344.107.175.194.35.193.394-.002.194-.929 1.4-1.481 1.929-.806.77-1.226.972-2.015.97-.719-.003-1.18-.184-1.636-.644-.582-.589-.834-1.277-.834-2.277 0-.99.25-1.684.816-2.26.678-.692 1.755-.877 2.65-.456z"/>
    </g>
</svg>
